<?xml version="1.0" encoding="UTF-8"?>
<svg id="Layer_1" data-name="Layer 1" xmlns="http://www.w3.org/2000/svg" viewBox="0 0 1000 1000">
  <defs>
    <style>
      .cls-1 {
        fill: #fafafa;
      }
    </style>
  </defs>
  <path class="cls-1" d="m307.33,388.68v26.34l11.89,1.86v7.46h-36.83v-7.46l11.42-1.86v-62.94l-11.42-1.86v-7.46h24.48c5.24,0,13.4-.23,16.78-.23,21.56,0,33.8,8.39,33.8,22.85,0,16.09-15.85,23.31-35.43,23.31h-14.69Zm0-8.16h11.89c12.47,0,21.91-3.26,21.91-15.04,0-10.84-8.16-15.04-20.75-15.04-4.31,0-8.63.47-13.05,1.4v28.67Z"/>
  <path class="cls-1" d="m388.45,386.82v28.21l10.96,1.86v7.46h-35.43v-7.46l10.96-1.86v-62.94l-10.96-1.86v-7.46h35.43v7.46l-10.96,1.86v25.29h36.83v-25.29l-10.96-1.86v-7.46h35.43v7.46l-10.96,1.86v62.94l10.96,1.86v7.46h-35.43v-7.46l10.96-1.86v-28.21h-36.83Z"/>
  <path class="cls-1" d="m458.97,383.79c0-25.88,15.85-42.43,40.8-42.43s40.8,16.78,40.8,41.96-15.85,42.43-40.8,42.43-40.8-16.78-40.8-41.96Zm66.21-.93c0-21.8-9.09-33.1-25.41-33.1s-25.41,11.54-25.41,34.04,9.09,33.1,25.41,33.1,25.41-11.54,25.41-34.04Z"/>
  <path class="cls-1" d="m630.78,359.55l-7.93,1.4c-4.08-7.58-9.79-10.49-18.65-10.49-3.61,0-6.99.47-10.26,1.4v63.18l11.19,1.86v7.46h-35.9v-7.46l11.19-1.86v-63.18c-3.26-.93-6.64-1.4-10.26-1.4-8.86,0-14.57,2.91-18.65,10.49l-7.93-1.4,8.86-16.78h69.47l8.86,16.78Z"/>
  <path class="cls-1" d="m633.81,383.79c0-25.88,15.85-42.43,40.8-42.43s40.8,16.78,40.8,41.96-15.85,42.43-40.8,42.43-40.8-16.78-40.8-41.96Zm66.21-.93c0-21.8-9.09-33.1-25.41-33.1s-25.41,11.54-25.41,34.04,9.09,33.1,25.41,33.1,25.41-11.54,25.41-34.04Z"/>
  <path class="cls-1" d="m300.74,458.27h4.66l10.26,21.45h-8.39c-7.46-8.86-15.62-13.52-26.34-13.52-14.69,0-23.08,13.17-23.08,34.27,0,19.93,7.93,32.4,26.58,32.4,11.66,0,19-5.01,22.61-11.66h9.56c-3.15,10.37-14.34,20.98-33.34,20.98-26.34,0-40.8-16.43-40.8-42.19s14.92-42.19,37.3-42.19c8.86,0,15.85,3.26,19,6.41l1.98-5.94Z"/>
  <path class="cls-1" d="m325.34,500.23c0-25.88,15.85-42.43,40.8-42.43s40.8,16.78,40.8,41.96-15.85,42.43-40.8,42.43-40.8-16.78-40.8-41.96Zm66.21-.93c0-21.8-9.09-33.1-25.41-33.1s-25.41,11.54-25.41,34.04,9.09,33.1,25.41,33.1,25.41-11.54,25.41-34.04Z"/>
  <path class="cls-1" d="m495.16,466.66l-24.24,74.13h-8.39l-24.71-74.13h-.47v64.81l11.19,1.86v7.46h-32.64v-7.46l10.96-1.86v-62.94l-10.49-1.86v-7.46h33.57l18.42,55.25h.47l18.42-55.25h32.64v7.46l-10.72,1.86v62.94l11.19,1.86v7.46h-35.67v-7.46l10.96-1.86v-64.81h-.47Z"/>
  <path class="cls-1" d="m530.13,466.66v-7.46h35.43v7.46l-10.96,1.86v62.94l10.96,1.86v7.46h-35.43v-7.46l10.96-1.86v-62.94l-10.96-1.86Z"/>
  <path class="cls-1" d="m575.82,466.66v-7.46h31.24l34.27,57.81h.47v-48.49l-11.42-1.86v-7.46h33.1v7.46l-11.19,1.86v72.62h-13.05l-41.96-71.22h-.47v61.54l13.52,1.86v7.46h-34.97v-7.46l10.96-1.86v-62.94l-10.49-1.86Z"/>
  <path class="cls-1" d="m734.69,457.8h3.73l11.66,22.85h-9.09c-7.93-8.97-17.83-13.99-29.02-13.99-16.43,0-25.06,10.96-25.06,32.87s8.39,33.57,25.64,33.57c10.72,0,20.51-4.66,20.51-17.72v-6.99l-11.42-1.17v-7.69h35.9v7.69l-11.19,1.17v29.14h-4.66c-1.4-1.28-2.68-1.86-4.9-1.86-6.18,0-11.31,6.53-26.57,6.53-24.59,0-38.93-16.78-38.93-42.08s14.57-42.31,38.46-42.31c9.79,0,16.78,2.68,22.38,7.23l2.56-7.23Z"/>
  <path class="cls-1" d="m323.24,633.93h8.86c8.63,8.97,21.68,16.09,33.57,16.09s18.42-5.36,18.42-12.82c0-8.39-9.44-12.24-25.88-14.45l-5.36-.7c-15.39-1.86-29.14-8.28-29.14-24.48,0-13.99,12.59-23.31,29.37-23.31,9.79,0,17.25,2.8,23.31,7.46l1.86-6.06h6.06l9.32,22.85h-8.39c-8.39-8.86-20.05-15.39-32.17-15.39-9.79,0-17.25,3.73-17.25,11.19,0,6.88,7.46,10.14,17.83,11.89l7.69,1.28c17.37,2.8,35.08,8.86,35.08,25.99,0,15.85-12.24,25.18-30.77,25.18-10.72,0-19.12-3.73-24.71-8.86l-2.8,7.46h-6.99l-7.93-23.31Z"/>
  <path class="cls-1" d="m406.11,616.68c0-25.88,15.85-42.43,40.8-42.43s40.8,16.78,40.8,41.96-15.85,42.43-40.8,42.43-40.8-16.78-40.8-41.96Zm66.21-.93c0-21.8-9.09-33.1-25.41-33.1s-25.41,11.54-25.41,34.04,9.09,33.1,25.41,33.1,25.41-11.54,25.41-34.04Z"/>
  <path class="cls-1" d="m498.19,616.68c0-25.88,15.85-42.43,40.8-42.43s40.8,16.78,40.8,41.96-15.85,42.43-40.8,42.43-40.8-16.78-40.8-41.96Zm66.21-.93c0-21.8-9.09-33.1-25.41-33.1s-25.41,11.54-25.41,34.04,9.09,33.1,25.41,33.1,25.41-11.54,25.41-34.04Z"/>
  <path class="cls-1" d="m589.23,583.11v-7.46h31.24l34.27,57.81h.47v-48.49l-11.42-1.86v-7.46h33.1v7.46l-11.19,1.86v72.62h-13.05l-41.96-71.22h-.47v61.54l13.52,1.86v7.46h-34.97v-7.46l10.96-1.86v-62.94l-10.49-1.86Z"/>
</svg>