<?xml version="1.0" encoding="UTF-8"?>
<svg id="Layer_1" data-name="Layer 1" xmlns="http://www.w3.org/2000/svg" viewBox="0 0 1000 1000">
  <defs>
    <style>
      .cls-1 {
        fill: #fafafa;
      }

      .cls-2 {
        fill: none;
        stroke: #fafafa;
        stroke-miterlimit: 10;
        stroke-width: 2px;
      }
    </style>
  </defs>
  <rect class="cls-2" x="313.33" y="313.33" width="373.33" height="373.33"/>
  <line class="cls-2" x1="686.67" y1="313.33" x2="1104.67" y2="-104.67"/>
  <line class="cls-2" x1="-104.67" y1="1104.67" x2="313.33" y2="686.67"/>
  <line class="cls-2" x1="313.33" y1="313.33" x2="-104.67" y2="-104.67"/>
  <line class="cls-2" x1="1104.67" y1="1104.67" x2="686.67" y2="686.67"/>
  <g>
    <path class="cls-1" d="m393.98,397.57c12.37,0,17.69,7.22,17.69,15.62,0,8.94-6.59,16.16-17.69,16.16h-11.46v24.46h7.22v3.25h-22.03v-3.25h7.22v-52.99h-7.22v-3.25h26.27Zm-11.46,28.35h10.38c5.87,0,10.29-5.24,10.29-12.55s-4.06-12.55-10.29-12.55h-10.38v25.1Z"/>
    <path class="cls-1" d="m465.74,400.82v52.99h6.5v3.25h-20.22v-3.25h6.05v-26.45h-27.62v26.45h6.14v3.25h-20.22v-3.25h6.5v-52.99h-6.5v-3.25h20.22v3.25h-6.14v23.02h27.62v-23.02h-6.05v-3.25h20.22v3.25h-6.5Z"/>
    <path class="cls-1" d="m527.31,425.55c0,14.35-7.04,32.5-25.55,32.5s-25.55-15.44-25.55-28.98c0-14.53,6.77-32.32,25.55-32.32s25.55,15.26,25.55,28.8Zm-25.64-25.91c-13.09,0-17.42,10.74-17.42,23.38-.09,14.98,5.24,32.14,17.51,32.14,13.18,0,17.6-10.56,17.6-23.74,0-15.26-5.42-31.78-17.69-31.78Z"/>
    <path class="cls-1" d="m531.55,397.57h45.95v15.89h-3.25l-4.87-12.64h-11.01v52.99h7.85v3.25h-23.47v-3.25h7.94v-52.99h-11.1l-4.78,12.64h-3.25v-15.89Z"/>
    <path class="cls-1" d="m632.83,425.55c0,14.35-7.04,32.5-25.55,32.5s-25.55-15.44-25.55-28.98c0-14.53,6.77-32.32,25.55-32.32s25.55,15.26,25.55,28.8Zm-25.64-25.91c-13.09,0-17.42,10.74-17.42,23.38-.09,14.98,5.24,32.14,17.51,32.14,13.18,0,17.6-10.56,17.6-23.74,0-15.26-5.42-31.78-17.69-31.78Z"/>
    <path class="cls-1" d="m383.6,487.96c-1.08-10.29-7.4-13.99-13-13.99-13.18,0-17.51,10.74-17.51,23.38,0,14.98,5.33,31.41,18.05,31.41,6.5,0,13.63-4.6,15.53-13.54h3.43c-1.72,9.75-9.75,17.15-19.5,17.15-19.14,0-25.55-15.44-25.55-28.98,0-14.44,6.77-32.32,25.55-32.32,9.12,0,15.08,3.61,18.51,7.22v9.66h-5.51Z"/>
    <path class="cls-1" d="m444.62,499.88c0,14.35-7.04,32.5-25.55,32.5s-25.55-15.44-25.55-28.98c0-14.53,6.77-32.32,25.55-32.32s25.55,15.26,25.55,28.8Zm-25.64-25.91c-13.09,0-17.42,10.74-17.42,23.38-.09,14.98,5.24,32.14,17.51,32.14,13.18,0,17.6-10.56,17.6-23.74,0-15.26-5.42-31.78-17.69-31.78Z"/>
    <path class="cls-1" d="m510.16,475.23v52.9h7.04v3.25h-21.76v-3.25h7.04v-46.58l-18.96,49.74h-4.06l-.09.09-19.68-50.19v46.94h6.95v3.25h-18.05v-3.25h7.22v-52.9h-7.22v-3.34h15.26l19.32,49.47,18.87-49.47h15.17v3.34h-7.04Z"/>
    <path class="cls-1" d="m536.42,475.14v52.99h9.3v3.25h-25.82v-3.25h8.94v-52.99h-8.94v-3.25h25.82v3.25h-9.3Z"/>
    <path class="cls-1" d="m601.78,471.89v3.34h-7.58v56.15h-4.15l-30.51-50.1v46.85h7.67v3.25h-18.78v-3.25h7.22v-52.9h-7.22v-3.34h14.71l27.08,44.32v-40.98h-7.31v-3.34h18.87Z"/>
    <path class="cls-1" d="m644.93,487.96c-.99-10.29-7.94-13.99-13.63-13.99-13.09,0-17.6,10.74-17.6,23.38-.09,14.98,5.24,32.14,17.6,32.14,7.49,0,13.09-5.87,13.09-13.36v-6.59h-10.2v-3.25h23.11v3.25h-5.15v21.85h-7.76v-5.24c-1.53,2.62-5.96,6.23-13.09,6.23-19.23,0-25.55-15.44-25.55-28.98,0-14.71,6.59-32.32,25.55-32.32,9.03,0,15.71,3.61,19.14,7.22v9.66h-5.51Z"/>
    <path class="cls-1" d="m403.55,589.63c1.26,10.47,5.69,14.08,12.37,14.08,7.31,0,11.65-4.42,11.65-10.92,0-3.34-1.71-6.32-3.97-7.85-2.44-1.62-15.89-10.11-18.33-11.74-3.88-2.53-7.04-6.41-7.04-13.36,0-8.21,6.86-14.44,17.87-14.44,7.22,0,13.54,2.26,16.97,5.87v10.92h-5.51c-.99-11.01-4.96-13.9-11.65-13.9-7.76,0-10.74,4.96-10.74,10.29,0,2.89,1.35,5.6,4.15,7.31,2.17,1.35,15.44,9.75,17.69,11.19,5.33,3.34,7.85,7.85,7.85,13.9,0,8.76-7.22,15.71-18.96,15.71-8.67,0-14.8-2.89-17.69-6.23v-10.83h5.33Z"/>
    <path class="cls-1" d="m491.38,574.2c0,14.35-7.04,32.5-25.55,32.5s-25.55-15.44-25.55-28.98c0-14.53,6.77-32.32,25.55-32.32s25.55,15.25,25.55,28.8Zm-25.64-25.91c-13.09,0-17.42,10.74-17.42,23.38-.09,14.98,5.24,32.14,17.51,32.14,13.18,0,17.6-10.56,17.6-23.74,0-15.26-5.42-31.78-17.69-31.78Z"/>
    <path class="cls-1" d="m547.71,574.2c0,14.35-7.04,32.5-25.55,32.5s-25.55-15.44-25.55-28.98c0-14.53,6.77-32.32,25.55-32.32s25.55,15.25,25.55,28.8Zm-25.64-25.91c-13.09,0-17.42,10.74-17.42,23.38-.09,14.98,5.24,32.14,17.51,32.14,13.18,0,17.6-10.56,17.6-23.74,0-15.26-5.42-31.78-17.69-31.78Z"/>
    <path class="cls-1" d="m605.03,546.21v3.34h-7.58v56.15h-4.15l-30.51-50.1v46.85h7.67v3.25h-18.78v-3.25h7.22v-52.9h-7.22v-3.34h14.71l27.08,44.32v-40.98h-7.31v-3.34h18.87Z"/>
  </g>
</svg>