<?xml version="1.0" encoding="UTF-8"?>
<svg id="Layer_2" data-name="Layer 2" xmlns="http://www.w3.org/2000/svg" viewBox="0 0 282.49 282.49">
  <defs>
    <style>
      .cls-1 {
        fill: #00eb00;
      }

      .cls-2 {
        fill: none;
        opacity: 0;
      }
    </style>
  </defs>
  <g id="Layer_1-2" data-name="Layer 1">
    <g>
      <rect class="cls-2" width="282.49" height="282.49"/>
      <path class="cls-1" d="m249.41,141.56c20.38-5.29,33.09-22.05,33.09-45.92,0-29.16-18.69-47.71-48.24-47.71-.12,0-.25,0-.37,0-5.53-20.1-22.33-32.26-46.26-32.26s-40.13,12.16-45.71,32.26c-.01,0-.03,0-.04,0-.3,0-.59.01-.88.02-.3,0-.6-.02-.9-.02-.12,0-.25,0-.37,0-5.53-20.1-22.33-32.26-46.26-32.26s-40.13,12.16-45.71,32.26c-.01,0-.03,0-.04,0C18.95,47.93,0,66.49,0,95.64c0,23.79,12.45,40.52,33.09,45.87C12.7,146.81,0,163.57,0,187.44c0,29.04,18.54,47.56,47.9,47.7,5.7,19.75,22.4,31.68,46.09,31.68s39.81-11.93,45.54-31.68c.36,0,.72.01,1.09.01.29,0,.57-.01.86-.02.19,0,.38.01.58.01,5.7,19.75,22.4,31.68,46.09,31.68s39.81-11.93,45.54-31.68c.36,0,.72.01,1.09.01,28.76,0,47.71-18.55,47.71-47.71,0-23.79-12.45-40.52-33.09-45.87Z"/>
    </g>
  </g>
</svg>