<?xml version="1.0" encoding="utf-8"?>
<!-- Generator: Adobe Illustrator 27.4.0, SVG Export Plug-In . SVG Version: 6.00 Build 0)  -->
<svg version="1.1" id="Layer_2_00000093172521979964867730000002344032080888977820_"
	 xmlns="http://www.w3.org/2000/svg" xmlns:xlink="http://www.w3.org/1999/xlink" x="0px" y="0px" viewBox="0 0 282.5 282.5"
	 style="enable-background:new 0 0 282.5 282.5;" xml:space="preserve">
<style type="text/css">
	.st0{fill:#FE7EC5;}
</style>
<g id="Layer_1-2">
	<g>
		<path class="st0" d="M249.4,141.6c20.4-5.3,33.1-22.1,33.1-45.9c0-29.2-18.7-47.7-48.2-47.7c-0.1,0-0.2,0-0.4,0
			c-5.5-20.1-22.3-32.3-46.3-32.3S147.5,27.9,141.9,48l0,0c-0.3,0-0.6,0-0.9,0c-0.3,0-0.6,0-0.9,0c-0.1,0-0.2,0-0.4,0
			c-5.5-20.1-22.3-32.3-46.3-32.3S53.3,27.8,47.8,47.9l0,0C19,47.9,0,66.5,0,95.6c0,23.8,12.4,40.5,33.1,45.9
			C12.7,146.8,0,163.6,0,187.4c0,29,18.5,47.6,47.9,47.7c5.7,19.8,22.4,31.7,46.1,31.7s39.8-11.9,45.5-31.7c0.4,0,0.7,0,1.1,0
			c0.3,0,0.6,0,0.9,0c0.2,0,0.4,0,0.6,0c5.7,19.8,22.4,31.7,46.1,31.7s39.8-11.9,45.5-31.7c0.4,0,0.7,0,1.1,0
			c28.8,0,47.7-18.6,47.7-47.7C282.5,163.6,270,146.9,249.4,141.6L249.4,141.6z"/>
	</g>
</g>
</svg>
