<?xml version="1.0" encoding="utf-8"?>
<!-- Generator: Adobe Illustrator 27.4.0, SVG Export Plug-In . SVG Version: 6.00 Build 0)  -->
<svg version="1.1" id="Layer_2_00000157274515765784578200000010190048254363201443_"
	 xmlns="http://www.w3.org/2000/svg" xmlns:xlink="http://www.w3.org/1999/xlink" x="0px" y="0px" viewBox="0 0 282.5 282.5"
	 style="enable-background:new 0 0 282.5 282.5;" xml:space="preserve">
<style type="text/css">
	.st0{fill:#FE7EC5;}
</style>
<g id="Layer_1-2">
	<g>
		<path class="st0" d="M48.4,180.1c-0.3,2.5-0.4,5-0.4,7.7c0,28.8,18.6,47.7,47.7,47.7c2.6,0,5.1-0.1,7.5-0.4c1.4,1.8,3,3.5,4.7,5.3
			c20.3,20.3,46.9,20.6,67.5,0c1.7-1.7,3.3-3.5,4.7-5.2c2.4,0.3,4.8,0.4,7.4,0.4c29.1,0,47.7-18.7,47.7-48.2c0-2.4-0.1-4.7-0.4-6.9
			c1.9-1.5,3.7-3.1,5.5-4.9c20.6-20.6,20.5-46.9-0.4-67.8c-1.7-1.7-3.5-3.3-5.2-4.7c0.3-2.6,0.5-5.2,0.5-8
			c0-28.8-18.6-47.7-47.7-47.7c-2.8,0-5.4,0.2-8,0.5c-1.5-1.8-3.1-3.7-4.9-5.4c-20.3-20.3-46.8-20.6-67.5,0
			c-1.7,1.7-3.3,3.5-4.7,5.3c-2.2-0.2-4.4-0.3-6.7-0.3C66.5,47.5,48,66.2,48,95.7c0,2.2,0.1,4.3,0.3,6.4c-2.1,1.6-4.1,3.4-6,5.3
			c-20.6,20.6-20.5,46.9,0.4,67.8C44.5,176.9,46.4,178.6,48.4,180.1L48.4,180.1z"/>
	</g>
</g>
</svg>
