<?xml version="1.0" encoding="utf-8"?>
<!-- Generator: Adobe Illustrator 27.4.0, SVG Export Plug-In . SVG Version: 6.00 Build 0)  -->
<svg version="1.1" id="Layer_2_00000011713696582707264330000014437269738659861931_"
	 xmlns="http://www.w3.org/2000/svg" xmlns:xlink="http://www.w3.org/1999/xlink" x="0px" y="0px" viewBox="0 0 282.5 282.5"
	 style="enable-background:new 0 0 282.5 282.5;" xml:space="preserve">
<style type="text/css">
	.st0{fill:none;}
	.st1{fill:#00EB00;}
</style>
<g id="Layer_1-2">
	<g>
		<rect class="st0" width="282.5" height="282.5"/>
		<path class="st1" d="M235.1,95.9c0-0.4,0-0.7,0-1.1c0-28.8-18.6-47.7-47.7-47.7c-23.8,0-40.5,12.5-45.9,33.1
			c-5.3-20.4-22.1-33.1-45.9-33.1c-29.2,0-47.7,18.7-47.7,48.2c0,0.1,0,0.2,0,0.4c-20.1,5.5-32.3,22.3-32.3,46.3
			s12.2,40.1,32.3,45.7c0,0,0,0,0,0c0,28.8,18.5,47.7,47.7,47.7c23.8,0,40.5-12.4,45.9-33.1c5.3,20.4,22.1,33.1,45.9,33.1
			c29,0,47.6-18.5,47.7-47.9c19.8-5.7,31.7-22.4,31.7-46.1S254.9,101.6,235.1,95.9L235.1,95.9z"/>
	</g>
</g>
</svg>
