<?xml version="1.0" encoding="UTF-8"?>
<svg id="Layer_2" data-name="Layer 2" xmlns="http://www.w3.org/2000/svg" viewBox="0 0 282.49 282.49">
  <defs>
    <style>
      .cls-1 {
        fill: #00eb00;
      }

      .cls-2 {
        fill: none;
        opacity: 0;
      }
    </style>
  </defs>
  <g id="Layer_1-2" data-name="Layer 1">
    <g>
      <rect class="cls-2" width="282.49" height="282.49"/>
      <path class="cls-1" d="m48.38,180.09c-.29,2.47-.44,5.02-.44,7.67,0,28.76,18.55,47.71,47.71,47.71,2.6,0,5.11-.15,7.53-.44,1.44,1.79,3.01,3.54,4.73,5.26,20.33,20.33,46.85,20.62,67.47,0,1.71-1.71,3.28-3.46,4.7-5.24,2.37.28,4.82.43,7.36.43,29.15,0,47.71-18.69,47.71-48.24,0-2.38-.13-4.7-.38-6.94,1.88-1.48,3.72-3.12,5.52-4.91,20.62-20.62,20.52-46.95-.38-67.84-1.71-1.71-3.46-3.27-5.24-4.69.32-2.56.48-5.23.48-7.99,0-28.76-18.55-47.71-47.71-47.71-2.76,0-5.42.17-7.99.5-1.47-1.84-3.09-3.66-4.86-5.43-20.33-20.33-46.85-20.62-67.47,0-1.72,1.72-3.3,3.49-4.73,5.29-2.18-.23-4.43-.35-6.74-.35-29.15,0-47.71,18.69-47.71,48.24,0,2.2.11,4.33.32,6.41-2.06,1.59-4.08,3.36-6.05,5.33-20.62,20.62-20.52,46.95.37,67.84,1.88,1.88,3.82,3.59,5.79,5.13Z"/>
    </g>
  </g>
</svg>