<?xml version="1.0" encoding="utf-8"?>
<!-- Generator: Adobe Illustrator 27.4.0, SVG Export Plug-In . SVG Version: 6.00 Build 0)  -->
<svg version="1.1" id="Layer_2_00000143590363912618606160000001057934731531938483_"
	 xmlns="http://www.w3.org/2000/svg" xmlns:xlink="http://www.w3.org/1999/xlink" x="0px" y="0px" viewBox="0 0 282.5 282.5"
	 style="enable-background:new 0 0 282.5 282.5;" xml:space="preserve">
<style type="text/css">
	.st0{fill:#FAFAFA;}
</style>
<g id="Layer_1-2">
	<g>
		<path class="st0" d="M269.5,77.6c0-39.4-25.4-65.3-65.4-65.3c-32.6,0-55.5,17-62.8,45.3c-7.2-27.9-30.2-45.3-62.9-45.3
			C38.5,12.3,13,37.9,13,78.3c0,32.3,17.1,55.6,45.3,62.9C30.1,148.5,13,171.7,13,204.9c0,39.4,25.4,65.4,65.3,65.4
			c32.6,0,55.5-17.1,62.8-45.3c7.2,27.9,30.2,45.3,62.9,45.3c39.9,0,65.4-25.6,65.4-66.1c0-32.3-17.1-55.6-45.3-62.9
			C252.4,134,269.5,110.8,269.5,77.6z"/>
	</g>
</g>
</svg>
