<?xml version="1.0" encoding="UTF-8"?>
<svg id="Layer_2" data-name="Layer 2" xmlns="http://www.w3.org/2000/svg" viewBox="0 0 282.49 282.49">
  <defs>
    <style>
      .cls-1 {
        fill: #00eb00;
      }

      .cls-2 {
        fill: none;
        opacity: 0;
      }
    </style>
  </defs>
  <g id="Layer_1-2" data-name="Layer 1">
    <g>
      <rect class="cls-2" width="282.49" height="282.49"/>
      <path class="cls-1" d="m269.46,77.62c0-39.39-25.41-65.35-65.35-65.35-32.59,0-55.51,17.05-62.83,45.32-7.25-27.92-30.21-45.32-62.9-45.32C38.45,12.27,13.03,37.86,13.03,78.34c0,32.3,17.09,55.56,45.26,62.89-28.17,7.27-45.26,30.45-45.26,63.64,0,39.39,25.41,65.35,65.35,65.35,32.59,0,55.51-17.05,62.83-45.32,7.25,27.92,30.21,45.32,62.9,45.32,39.93,0,65.35-25.59,65.35-66.07,0-32.3-17.09-55.56-45.26-62.89,28.17-7.27,45.26-30.45,45.26-63.64Z"/>
    </g>
  </g>
</svg>